<?xml version="1.0" standalone="no"?>
<!DOCTYPE svg PUBLIC "-//W3C//DTD SVG 20010904//EN"
 "http://www.w3.org/TR/2001/REC-SVG-20010904/DTD/svg10.dtd">
<svg version="1.0" xmlns="http://www.w3.org/2000/svg"
 width="512.000000pt" height="512.000000pt" viewBox="0 0 512.000000 512.000000"
 preserveAspectRatio="xMidYMid meet">

<g transform="translate(0.000000,512.000000) scale(0.100000,-0.100000)"
fill="#000000" stroke="none">
<path d="M2375 4784 c-466 -68 -847 -304 -1101 -685 -165 -247 -247 -516 -248
-809 -1 -141 2 -164 27 -255 105 -366 363 -849 995 -1860 152 -242 324 -521
383 -620 60 -99 113 -187 119 -195 12 -18 3 -32 124 171 52 86 207 335 344
553 685 1081 942 1556 1049 1942 25 89 28 115 27 259 0 112 -5 187 -18 250
-121 612 -575 1082 -1181 1221 -104 23 -145 27 -305 30 -102 1 -198 0 -215 -2z
m345 -800 c139 -32 275 -117 372 -232 210 -248 212 -637 3 -881 -143 -167
-322 -251 -535 -251 -387 0 -690 304 -690 689 0 119 19 202 70 306 87 179 264
323 455 369 80 19 244 19 325 0z"/>
</g>
</svg>
